<?xml version="1.0" standalone="no"?>
<!DOCTYPE svg PUBLIC "-//W3C//DTD SVG 20010904//EN"
 "http://www.w3.org/TR/2001/REC-SVG-20010904/DTD/svg10.dtd">
<svg version="1.0" xmlns="http://www.w3.org/2000/svg"
 width="500.000000pt" height="500.000000pt" viewBox="0 0 500.000000 500.000000"
 preserveAspectRatio="xMidYMid meet">
<metadata>
Created by potrace 1.15, written by Peter Selinger 2001-2017
</metadata>
<g transform="translate(0.000000,500.000000) scale(0.100000,-0.100000)"
fill="#000000" stroke="none">
<path d="M2226 3874 c-249 -45 -515 -189 -689 -373 -171 -181 -290 -417 -332
-655 -20 -115 -20 -337 0 -452 91 -518 511 -938 1029 -1029 115 -20 337 -20
452 0 518 91 938 511 1029 1029 20 115 20 337 0 452 -91 518 -511 938 -1029
1029 -111 19 -351 19 -460 -1z m440 -19 c391 -68 726 -312 907 -662 281 -544
124 -1214 -370 -1580 -380 -282 -896 -323 -1316 -106 -608 314 -852 1061 -547
1672 178 354 513 605 905 675 108 19 311 20 421 1z"/>
<path d="M1824 3289 c-29 -32 -27 -140 4 -171 l22 -22 23 22 c30 31 32 139 3
171 -11 12 -22 21 -26 21 -4 0 -15 -9 -26 -21z"/>
<path d="M3044 3289 c-29 -32 -27 -140 4 -171 l22 -22 23 22 c30 31 32 139 3
171 -11 12 -22 21 -26 21 -4 0 -15 -9 -26 -21z"/>
<path d="M2100 2215 c0 -13 51 -15 400 -15 349 0 400 2 400 15 0 13 -51 15
-400 15 -349 0 -400 -2 -400 -15z"/>
</g>
</svg>
