<?xml version="1.0" standalone="no"?>
<!DOCTYPE svg PUBLIC "-//W3C//DTD SVG 20010904//EN"
 "http://www.w3.org/TR/2001/REC-SVG-20010904/DTD/svg10.dtd">
<svg version="1.0" xmlns="http://www.w3.org/2000/svg"
 width="500.000000pt" height="500.000000pt" viewBox="0 0 500.000000 500.000000"
 preserveAspectRatio="xMidYMid meet">
<metadata>
Created by potrace 1.15, written by Peter Selinger 2001-2017
</metadata>
<g transform="translate(0.000000,500.000000) scale(0.100000,-0.100000)"
fill="#000000" stroke="none">
<path d="M2226 3874 c-249 -45 -515 -189 -689 -373 -171 -181 -290 -417 -332
-655 -20 -115 -20 -337 0 -452 91 -518 511 -938 1029 -1029 115 -20 337 -20
452 0 518 91 938 511 1029 1029 20 115 20 337 0 452 -91 518 -511 938 -1029
1029 -111 19 -351 19 -460 -1z"/>
</g>
</svg>
