<?xml version="1.0" standalone="no"?>
<!DOCTYPE svg PUBLIC "-//W3C//DTD SVG 20010904//EN"
 "http://www.w3.org/TR/2001/REC-SVG-20010904/DTD/svg10.dtd">
<svg version="1.0" xmlns="http://www.w3.org/2000/svg"
 width="500.000000pt" height="500.000000pt" viewBox="0 0 500.000000 500.000000"
 preserveAspectRatio="xMidYMid meet">
<metadata>
Created by potrace 1.15, written by Peter Selinger 2001-2017
</metadata>
<g transform="translate(0.000000,500.000000) scale(0.100000,-0.100000)"
fill="#000000" stroke="none">
<path d="M2226 3874 c-249 -45 -515 -189 -689 -373 -171 -181 -290 -417 -332
-655 -20 -115 -20 -337 0 -452 91 -518 511 -938 1029 -1029 115 -20 337 -20
452 0 518 91 938 511 1029 1029 20 115 20 337 0 452 -91 518 -511 938 -1029
1029 -111 19 -351 19 -460 -1z m414 -19 c52 -8 129 -24 170 -35 94 -27 258
-104 352 -167 97 -65 226 -188 299 -287 72 -96 170 -291 199 -396 84 -303 59
-606 -70 -878 -64 -134 -127 -227 -224 -329 -106 -112 -216 -193 -361 -264
-353 -172 -737 -172 -1090 0 -145 71 -255 152 -361 264 -306 323 -415 770
-294 1207 29 105 127 300 199 396 273 366 736 558 1181 489z"/>
<path d="M1815 3280 c-32 -61 -9 -180 35 -180 11 0 26 12 35 30 32 61 9 180
-35 180 -11 0 -26 -12 -35 -30z"/>
<path d="M3035 3280 c-32 -61 -9 -180 35 -180 11 0 26 12 35 30 32 61 9 180
-35 180 -11 0 -26 -12 -35 -30z"/>
<path d="M1974 2225 c-8 -21 6 -35 86 -90 91 -60 220 -121 301 -140 74 -17
223 -19 289 -4 83 19 184 75 258 144 68 63 88 95 59 95 -7 0 -33 -20 -57 -45
-219 -223 -530 -228 -826 -14 -52 38 -97 69 -100 69 -2 0 -7 -7 -10 -15z"/>
</g>
</svg>
