<?xml version="1.0" standalone="no"?>
<!DOCTYPE svg PUBLIC "-//W3C//DTD SVG 20010904//EN"
 "http://www.w3.org/TR/2001/REC-SVG-20010904/DTD/svg10.dtd">
<svg version="1.0" xmlns="http://www.w3.org/2000/svg"
 width="500.000000pt" height="500.000000pt" viewBox="0 0 500.000000 500.000000"
 preserveAspectRatio="xMidYMid meet">
<metadata>
Created by potrace 1.15, written by Peter Selinger 2001-2017
</metadata>
<g transform="translate(0.000000,500.000000) scale(0.100000,-0.100000)"
fill="#000000" stroke="none">
<path d="M2226 3874 c-249 -45 -515 -189 -689 -373 -171 -181 -290 -417 -332
-655 -20 -115 -20 -337 0 -452 91 -518 511 -938 1029 -1029 115 -20 337 -20
452 0 518 91 938 511 1029 1029 20 115 20 337 0 452 -91 518 -511 938 -1029
1029 -111 19 -351 19 -460 -1z m410 -15 c163 -22 341 -88 492 -181 119 -73
317 -271 390 -390 257 -418 257 -918 0 -1336 -73 -119 -271 -317 -390 -390
-418 -257 -920 -257 -1335 0 -117 72 -302 253 -378 371 -274 424 -274 950 0
1374 76 118 261 299 378 371 143 89 330 159 482 181 87 12 272 13 361 0z"/>
<path d="M1814 3275 c-28 -69 -7 -175 36 -175 25 0 50 52 50 105 0 53 -25 105
-50 105 -15 0 -25 -11 -36 -35z"/>
<path d="M3034 3275 c-28 -69 -7 -175 36 -175 25 0 50 52 50 105 0 53 -25 105
-50 105 -15 0 -25 -11 -36 -35z"/>
<path d="M1953 2223 c-8 -20 7 -28 97 -57 264 -85 572 -87 825 -6 105 34 136
53 118 71 -9 9 -23 7 -65 -9 -75 -30 -189 -59 -287 -73 -167 -23 -436 3 -581
56 -89 33 -101 35 -107 18z"/>
</g>
</svg>
